 ##     ## ##     ##  ######  ########    ###    ##    ##  ######   ##     ## 
 ###   ### ##     ## ##    ##    ##      ## ##   ###   ## ##    ##   ##   ##  
 #### #### ##     ## ##          ##     ##   ##  ####  ## ##          ## ##   
 ## ### ## ##     ##  ######     ##    ##     ## ## ## ## ##   ####    ###    
 ##     ## ##     ##       ##    ##    ######### ##  #### ##    ##    ## ##   
 ##     ## ##     ## ##    ##    ##    ##     ## ##   ### ##    ##   ##   ##  
 ##     ##  #######   ######     ##    ##     ## ##    ##  ######   ##     ##  

 Video
 ID : 0
 Format : MPEG-4 Visual
 Format profile : Advanced Simple@L5
 Format settings, BVOP : Yes
 Format settings, QPel : No
 Format settings, GMC : No warppoints
 Format settings, Matrix : Default (H.263)
 Muxing mode : Packed bitstream
 Codec ID : XVID
 Codec ID/Hint : XviD
 Duration : 1h 25mn
 Bit rate : 1 045 Kbps
 Width : 688 pixels
 Height : 368 pixels
 Display aspect ratio : 1.870
 Frame rate : 23.976 fps
 Color space : YUV
 Chroma subsampling : 4:2:0
 Bit depth : 8 bits
 Scan type : Progressive
 Bits/(Pixel*Frame) : 0.172
 Stream size : 638 MiB (90%)
 Writing library : XviD 57

 Audio
 ID : 1
 Format : MPEG Audio
 Format version : Version 1
 Format profile : Layer 3
 Mode : Joint stereo
 Mode extension : MS Stereo
 Codec ID : 55
 Codec ID/Hint : MP3
 Duration : 1h 25mn
 Bit rate mode : Variable
 Bit rate : 101 Kbps
 Nominal bit rate : 112 Kbps
 Channel(s) : 2 channels
 Sampling rate : 48.0 KHz
 Stream size : 61.4 MiB (9%)
 Alignment : Aligned on interleaves
 Interleave, duration : 24 ms (0.58 video frame)
 Interleave, preload duration : 183 ms
 Writing library : LAME3.97 
 Encoding settings : -m j -V 4 -q 2 -lowpass 16 --abr 112


 Trailer


 IMDB  http://www.imdb.com/title/tt1555747/


 Shout out to noir and all my friends @ 1337x.org and extratorrent. Happy 420


 Plot:

 Beer swilling, pot smoking, hard rock loving Canadian losers Dean and Terry find themselves forced to work for a living in hardscrabble Fort McMurray, Alberta. While there Terry finds love, and Dean finds himself adrift. You'll find countless jokes about how clueless and crass these two really are. If you love your comedy outrageous and stupid, but give yourself credit for some intelligence, you'll find this hilarious






 ==================================     http://thepiratebay.org/user/hiest
 ==================================






 Screens:
  http://leetleech.org/images/65210186469536183567.jpg

 ##     ## ##     ##  ######  ########    ###    ##    ##  ######   ##     ## 
 ###   ### ##     ## ##    ##    ##      ## ##   ###   ## ##    ##   ##   ##  
 #### #### ##     ## ##          ##     ##   ##  ####  ## ##          ## ##   
 ## ### ## ##     ##  ######     ##    ##     ## ## ## ## ##   ####    ###    
 ##     ## ##     ##       ##    ##    ######### ##  #### ##    ##    ## ##   
 ##     ## ##     ## ##    ##    ##    ##     ## ##   ### ##    ##   ##   ##  
 ##     ##  #######   ######     ##    ##     ## ##    ##  ######   ##     ##  
